<mxfile host="app.diagrams.net" modified="2024-07-20T01:00:19.312Z" agent="Mozilla/5.0 (Macintosh; Intel Mac OS X 10_15_7) AppleWebKit/537.36 (KHTML, like Gecko) Chrome/126.0.0.0 Safari/537.36" version="24.6.4" etag="fsSpWnQZ4HHn5csweFCt" type="github">
  <diagram name="第 1 页" id="CQOX06ow4Ir3IROy69nW">
    <mxGraphModel>
      <root>
        <mxCell id="0" />
        <mxCell id="1" parent="0" />
      </root>
    </mxGraphModel>
  </diagram>
</mxfile>
